<svg xmlns="http://www.w3.org/2000/svg" viewBox="0 0 753.12 102.19"><defs><style>.cls-1{fill:#fff;}.cls-2{fill:#f90000;}</style></defs><title>Fichier 2</title><g id="Calque_2" data-name="Calque 2"><g id="Calque_1-2" data-name="Calque 1"><path class="cls-1" d="M374.92,70.08a17.19,17.19,0,0,0,12.22-4.71l1.69,3.74a18.56,18.56,0,0,1-6.32,3.74,21.4,21.4,0,0,1-7.33,1.34,21.67,21.67,0,0,1-15.85-6.51A21.21,21.21,0,0,1,352.77,52a21.25,21.25,0,0,1,6.56-15.64,21.74,21.74,0,0,1,15.85-6.5,21.18,21.18,0,0,1,7.33,1.35A18.4,18.4,0,0,1,388.83,35l-1.69,3.73A18.07,18.07,0,0,0,356.89,52a18,18,0,0,0,18,18Z"/><path class="cls-1" d="M409.27,64.82A18,18,0,0,0,440.08,52,18,18,0,1,0,404,52,17.38,17.38,0,0,0,409.27,64.82ZM406.4,36.4A22.15,22.15,0,0,1,444.19,52a21.26,21.26,0,0,1-6.5,15.64,22.05,22.05,0,0,1-31.29,0A21.3,21.3,0,0,1,399.9,52,21.35,21.35,0,0,1,406.4,36.4Z"/><path class="cls-1" d="M480,74.71,464.88,42.8,460,73.68h-4.17l7.43-44.86,17,36.56,16.48-35.45,7.25,43.75h-4l-4.91-30.77Z"/><path class="cls-1" d="M532.27,54.11a11.38,11.38,0,0,0,7.44-2.36c1.91-1.55,2.86-4,2.86-7.37s-1-5.82-3-7.43a11.77,11.77,0,0,0-7.6-2.42H522V54.11Zm-2.06-23.7q8.24,0,12.36,3.61t4.13,10a14.09,14.09,0,0,1-3.87,10.23c-2.58,2.68-6.09,4-10.56,4H522V73.68h-4.13V30.41Z"/><path class="cls-1" d="M586.09,30.41h4.12V55.66q0,8.87-4.06,13.7c-2.71,3.23-6.5,4.83-11.39,4.83s-8.85-1.59-11.5-4.79-4-7.78-4-13.74V30.41h4.11V56.17c0,4.54,1,8,3,10.36a11.56,11.56,0,0,0,16.67,0c2-2.36,3-5.82,3-10.36Z"/><path class="cls-1" d="M602.83,30.41h26.79v4.12H618.28V73.68h-4.12V34.53H602.83Z"/><path class="cls-1" d="M667,34.53H647.38V50h16.49v4.12H647.38V69.55H667v4.13H643.26V30.41H667Z"/><path class="cls-1" d="M685.75,34.53V54.11h10.3a11.29,11.29,0,0,0,7.43-2.36c1.92-1.55,2.87-4,2.87-7.37s-1-5.82-3-7.43a11.78,11.78,0,0,0-7.59-2.42ZM711.5,73.68h-4.89L695,58.22h-9.21V73.68h-4.12V30.41H694q8.25,0,12.36,3.61t4.12,10a14.59,14.59,0,0,1-2.9,9.15,12.61,12.61,0,0,1-8,4.76Z"/><path class="cls-1" d="M738.42,49.21c5.32,1.08,9.07,2.56,11.27,4.47S753,58.37,753,62a10.76,10.76,0,0,1-4.38,8.56,16.61,16.61,0,0,1-10.93,3.61,21.48,21.48,0,0,1-6.38-.91A16.27,16.27,0,0,1,726.41,71a29.68,29.68,0,0,1-2.86-2.25,10.7,10.7,0,0,1-1.48-1.61l2.06-3.67a16.65,16.65,0,0,0,5.66,4.73,17,17,0,0,0,8,1.84,12.66,12.66,0,0,0,7.81-2.43,7.11,7.11,0,0,0,3.26-5.89,6.7,6.7,0,0,0-2.45-5.25Q744,54.43,738,53.33c-5.51-1-9.27-2.43-11.31-4.35a9.85,9.85,0,0,1-3.06-7.55,10.27,10.27,0,0,1,4-8.21A15.85,15.85,0,0,1,738,29.9a17.35,17.35,0,0,1,12.89,5.15L749,38.59A14.17,14.17,0,0,0,738,34a13.14,13.14,0,0,0-7.32,1.9,5.94,5.94,0,0,0-2.92,5.25,5.88,5.88,0,0,0,2.47,5.07C731.85,47.45,734.6,48.44,738.42,49.21Z"/><path class="cls-1" d="M40.78,22.92H51.52V57.8q0,11.65-5.2,17.24T32.06,80.61a19.12,19.12,0,0,1-7.12-1.51,13.88,13.88,0,0,1-5.62-3.69l5.87-8.88a8.43,8.43,0,0,0,6.87,3.35A7.76,7.76,0,0,0,38.48,67a11.16,11.16,0,0,0,2.3-7.16Z"/><path class="cls-1" d="M171.1,22.92h10.73V79.27H171.1V56.46H146.94V79.27H136.21V22.92h10.73V45.73H171.1Z"/><path class="cls-1" d="M290.38,45.06A66.83,66.83,0,0,1,299,47a30.19,30.19,0,0,1,6.62,3,12,12,0,0,1,4.66,5,16.67,16.67,0,0,1,1.55,7.5,16.46,16.46,0,0,1-5.91,13q-5.91,5.11-16.73,5.11a31.22,31.22,0,0,1-23-9.39l5.36-9.39a22.16,22.16,0,0,0,8.39,6,24.67,24.67,0,0,0,9.38,2.06c3.7,0,6.58-.61,8.65-1.85a5.53,5.53,0,0,0,3.1-4.86q0-5.37-11.41-7-11.56-1.77-16.52-6a13.75,13.75,0,0,1-4.94-10.94A16.09,16.09,0,0,1,274,26.69q5.79-5.1,15.86-5.11a29.61,29.61,0,0,1,19.28,6.87l-4.53,9.23a22,22,0,0,0-14.93-5.36A17.64,17.64,0,0,0,282,33.78a4.87,4.87,0,0,0-3,4.65,4.57,4.57,0,0,0,2.51,4.2Q284,44.05,290.38,45.06Z"/><path class="cls-1" d="M208.62,22.92H197.51V79.27h10.73V40.37l28.18,38.9h10.73l2.66-.18Z"/><path class="cls-1" d="M104.86,62.94A16.93,16.93,0,0,1,76,51,16.9,16.9,0,0,1,104.86,39a16.84,16.84,0,0,1,0,23.91Zm8.27-32.18a27.54,27.54,0,0,0-20.22-8.32,27.56,27.56,0,0,0-20.23,8.32A27.59,27.59,0,0,0,64.36,51,28.42,28.42,0,0,0,92.91,79.54a27.55,27.55,0,0,0,20.22-8.33A27.57,27.57,0,0,0,121.46,51,27.56,27.56,0,0,0,113.13,30.76Z"/><path class="cls-1" d="M323.57,92.36H9.83V9.83H323.57Zm0-92.36H0V102.19H333.4V0Z"/><path class="cls-2" d="M249.8,53.71V22.25H239.07V39.07Z"/><path class="cls-1" d="M353.1,79.9h2.79V99.14h9.22v2.34h-12Z"/><path class="cls-1" d="M385.4,90.47c0,7.42-4.51,11.36-10,11.36-5.7,0-9.7-4.42-9.7-11,0-6.85,4.25-11.33,10-11.33S385.4,84.07,385.4,90.47Zm-16.74.35c0,4.61,2.5,8.74,6.89,8.74s6.91-4.07,6.91-9c0-4.29-2.24-8.78-6.88-8.78S368.66,86.08,368.66,90.82Z"/><path class="cls-1" d="M389,101.48V79.9h3L399,90.82a60.43,60.43,0,0,1,3.87,7l.07,0c-.26-2.88-.32-5.51-.32-8.87v-9h2.62v21.58H402.4l-6.85-11a69.12,69.12,0,0,1-4-7.2l-.1,0c.16,2.72.23,5.32.23,8.9v9.22Z"/><path class="cls-1" d="M414.19,82.27h-6.57V79.9h16v2.37H417v19.21h-2.81Z"/><path class="cls-1" d="M424.53,99.85l12-17.51v-.1H425.55V79.9h14.57v1.7L428.21,99.05v.09h12.07v2.34H424.53Z"/><path class="cls-1" d="M454.88,91.36h-8.39v7.78h9.35v2.34H443.7V79.9h11.66v2.34h-8.87v6.82h8.39Z"/><path class="cls-1" d="M459.46,101.48V79.9h3l6.91,10.92a60.43,60.43,0,0,1,3.87,7l.07,0c-.26-2.88-.32-5.51-.32-8.87v-9h2.62v21.58h-2.81l-6.85-11a67.46,67.46,0,0,1-4-7.2l-.09,0c.16,2.72.22,5.32.22,8.9v9.22Z"/><path class="cls-1" d="M515.93,92.39v1.92h-30.1V92.39Z"/><path class="cls-1" d="M528.89,79.9v9h10.44v-9h2.82v21.58h-2.82V91.36H528.89v10.12h-2.78V79.9Z"/><path class="cls-1" d="M558.15,91.36h-8.38v7.78h9.35v2.34H547V79.9h11.66v2.34h-8.87v6.82h8.38Z"/><path class="cls-1" d="M562.73,101.48V79.9h3l6.92,10.92a60.43,60.43,0,0,1,3.87,7l.07,0c-.26-2.88-.32-5.51-.32-8.87v-9h2.62v21.58h-2.82l-6.85-11a69.12,69.12,0,0,1-4-7.2l-.1,0c.16,2.72.23,5.32.23,8.9v9.22Z"/><path class="cls-1" d="M583.8,80.19a28.82,28.82,0,0,1,5.35-.45c3,0,4.89.55,6.24,1.76a5.38,5.38,0,0,1,1.69,4.1A5.67,5.67,0,0,1,593,91.11v.09c1.66.58,2.66,2.12,3.17,4.36a33.77,33.77,0,0,0,1.66,5.92H595a28.24,28.24,0,0,1-1.44-5.15c-.64-3-1.79-4.1-4.32-4.2h-2.63v9.35H583.8ZM586.58,90h2.85c3,0,4.87-1.63,4.87-4.1,0-2.78-2-4-5-4a12.07,12.07,0,0,0-2.76.25Z"/><path class="cls-1" d="M603.81,79.9v21.58H601V79.9Z"/><path class="cls-1" d="M615.11,91.78v2.08H607.2V91.78Z"/><path class="cls-1" d="M634,100.78a13.89,13.89,0,0,1-5.7,1c-6.08,0-10.66-3.84-10.66-10.92,0-6.75,4.58-11.33,11.27-11.33a11.63,11.63,0,0,1,5.12,1l-.67,2.27a10.2,10.2,0,0,0-4.36-.89c-5,0-8.41,3.23-8.41,8.9,0,5.28,3,8.67,8.29,8.67a11.22,11.22,0,0,0,4.54-.89Z"/><path class="cls-1" d="M640.3,79.9v9h10.44v-9h2.82v21.58h-2.82V91.36H640.3v10.12h-2.78V79.9Z"/><path class="cls-1" d="M661.88,94.69l-2.24,6.79h-2.88l7.33-21.58h3.36l7.36,21.58h-3l-2.31-6.79ZM669,92.52l-2.12-6.21c-.48-1.41-.8-2.69-1.12-3.94h-.06c-.32,1.28-.67,2.59-1.09,3.9l-2.11,6.25Z"/><path class="cls-1" d="M678,80.16a32.78,32.78,0,0,1,5.35-.42c2.75,0,4.77.64,6,1.8a5.77,5.77,0,0,1,1.89,4.51,6.39,6.39,0,0,1-1.66,4.61A9,9,0,0,1,683,93a9.6,9.6,0,0,1-2.24-.19v8.64H678Zm2.79,10.4a9.36,9.36,0,0,0,2.31.23c3.36,0,5.41-1.64,5.41-4.61s-2-4.23-5.09-4.23a11.51,11.51,0,0,0-2.63.23Z"/><path class="cls-1" d="M706.19,91.36H697.8v7.78h9.35v2.34H695V79.9h11.65v2.34H697.8v6.82h8.39Z"/><path class="cls-1" d="M710.77,79.9h2.78V99.14h9.22v2.34h-12Z"/><path class="cls-1" d="M725.88,79.9h2.78V99.14h9.22v2.34h-12Z"/><path class="cls-1" d="M752.16,91.36h-8.39v7.78h9.35v2.34H741V79.9h11.65v2.34h-8.87v6.82h8.39Z"/></g></g></svg>